<?xml version="1.0" encoding="utf-8"?>
<!-- Generator: Adobe Illustrator 27.5.0, SVG Export Plug-In . SVG Version: 6.00 Build 0)  -->
<svg version="1.1" xmlns="http://www.w3.org/2000/svg" xmlns:xlink="http://www.w3.org/1999/xlink" x="0px" y="0px"
	 viewBox="0 0 500 500" style="enable-background:new 0 0 500 500;" xml:space="preserve">
<g id="BACKGROUND">
	<rect style="fill-rule:evenodd;clip-rule:evenodd;fill:#FFFFFF;" width="500" height="500"/>
</g>
<g id="OBJECTS">
	<path style="fill-rule:evenodd;clip-rule:evenodd;fill:#B2D9F6;" d="M130.697,106.166c-71.487,62.39-52.071,168.731-15.612,231.212
		c81.376,139.458,280.685,39.285,301.366-98.925c4.481-29.939-4.17-66.242-25.043-98.55
		C335.22,52.945,199.065,46.493,130.697,106.166z"/>
	<path style="fill-rule:evenodd;clip-rule:evenodd;fill:#D9D9D9;" d="M245.819,432.989c69.473,0,125.796-11.875,125.796-26.524
		c0-17.85-251.592-17.569-251.592,0C120.023,421.114,176.343,432.989,245.819,432.989z"/>
	<g>
		<path style="fill-rule:evenodd;clip-rule:evenodd;fill:#0F0E0E;" d="M308.31,236.967c0.317,1.366,0.605,2.74,0.976,4.091
			c0.833,3.015-0.381,6.015-2.054,8.564c14.015,9.911,19.118,29.518,20.883,46.017c0.15,1.411-0.446,2.735-1.603,3.555
			c-0.377,0.269-0.785,0.462-1.207,0.58c0.853,8.117,0.481,16.43-1.005,24.249c-0.781,4.111-2.027,8.749-3.842,13.185
			c-0.121,0.507-0.255,1.012-0.403,1.512c5.06-0.359,9.853-0.192,14.252,0.618c12.092,2.229,23.204,9.231,26.785,21.556
			c2.404,8.281,0.657,16.91-3.735,24.202c-5.479,9.092-14.538,15.539-24.159,19.67c-1.441,0.618-2.89,1.211-4.345,1.779
			c-2.13,8.727-7.426,16.549-16.308,19.763c-5.265,1.906-11.309,1.875-16.795,1.152c-4.516-0.593-9.001-1.69-13.342-3.047
			c-7.389-2.305-14.719-5.419-21.458-9.225c-0.947-0.534-1.897-1.087-2.83-1.666c-4.063-0.747-8.097-1.691-12.067-2.846
			c-0.895,0.443-1.794,0.871-2.702,1.283c-9.922,4.544-20.597,7.778-31.148,10.49c-1.844,0.476-3.838,0.938-5.918,1.336
			c-0.378,0.215-0.815,0.34-1.281,0.349c-0.23,0.002-0.46,0.005-0.689,0.002c-9.799,1.607-21.003,1.415-27.489-6.112
			c-2.39-2.775-3.747-6.126-4.394-9.673c-5.267-1.017-10.47-2.289-15.563-3.849c-9.206-2.825-18.138-7.722-23.774-15.754
			c-4.487-6.397-6.27-14.001-5.119-21.729c2.065-13.848,12.998-25.35,26.735-28.079c3.002-0.597,6.16-0.853,9.438-0.817
			c-1.323-4.847-1.3-10.044,0.011-14.913c-1.001-6.578-1.302-13.348-1.076-19.9c-0.14-0.073-0.277-0.154-0.411-0.246
			c-1.111-0.763-1.731-1.998-1.673-3.346c0.75-17.463,4.99-36.298,17.397-48.352c-2.236-2.861-4.344-6.574-3.313-10.31
			c0.518-1.876,0.869-3.795,1.371-5.678c-3.468-3.567-6.008-8.069-6.537-13.071c-0.25-2.357-0.03-4.729,0.651-6.999
			c1.404-4.669,4.297-8.792,9.114-10.264c-0.664-1.236-1.259-2.5-1.773-3.785c-1.02-2.552-1.726-5.233-1.945-7.977
			c-0.347-4.314,0.108-9.596,3.904-12.378c0.068-0.049,0.135-0.098,0.204-0.146c-0.495-0.178-0.98-0.368-1.452-0.569
			c-2.487-1.061-5.263-2.745-6.259-5.401c-0.904-2.411-0.049-4.788,1.384-6.784c2.391-3.324,5.913-6.225,9.236-8.579
			c3.587-2.542,7.442-4.795,11.343-6.82c0.936-0.487,1.887-0.97,2.847-1.438c-1.327-0.833-2.632-1.73-3.832-2.64
			c-2.051-1.558-5.77-4.582-5.121-7.529c0.187-0.851,0.697-1.534,1.392-2.043c0.972-0.713,2.375-1.304,3.492-1.758
			c1.81-0.738,3.675-1.379,5.534-1.98c4.873-1.577,9.886-2.913,14.88-4.047c4.318-0.981,8.736-1.838,13.133-2.361
			c3.097-0.367,7.107-0.711,10.172-0.081c0.308,0.064,1.083,0.216,1.736,0.285c-0.242-0.464-0.531-0.966-0.65-1.204
			c-0.538-1.087-0.977-2.303-0.725-3.532c0.368-1.805,1.969-2.701,3.613-3.143c2.629-0.709,6.39,0.662,8.806,1.673
			c3.735,1.563,7.411,3.614,10.887,5.686c3.679,2.192,7.284,4.532,10.822,6.947c-0.852-1.888-1.509-4.216-0.439-5.915
			c0.58-0.919,1.513-1.417,2.561-1.61c0.442-0.082,0.895-0.099,1.343-0.048c3.207,0.358,5.5,3.983,6.846,6.589
			c1.064,2.059,2.045,4.465,2.777,6.761c2.435-0.189,5.038-0.203,7.392-0.028c2.952,0.22,7.682,0.887,9.098,3.923
			c0.423,0.905,0.542,1.887,0.193,2.837c-0.766,2.074-3.38,2.952-5.341,3.396c-0.333,0.075-0.673,0.144-1.022,0.208
			c1.456,1.124,2.853,2.333,4.181,3.599c5.153,4.914,9.365,10.855,11.861,17.55c2.786,7.483-0.814,18.456-3.659,25.513
			c-0.861,2.135-1.79,4.255-2.776,6.351c0.739,0.071,1.479,0.206,2.208,0.415c4.95,1.412,7.909,5.589,9.333,10.328
			c0.682,2.27,0.9,4.643,0.65,6.999C315.906,228.085,312.615,233.195,308.31,236.967z"/>
		<g>
			<path style="fill-rule:evenodd;clip-rule:evenodd;fill:#0F0E0E;" d="M162.536,351.847c4.153-5.982,7.659-12.26,10.335-19.036
				c2.241-5.686,3.792-11.477,5.091-17.44c0.991-4.536,1.846-9.101,2.82-13.642c1.079-5.032,2.307-10.004,3.844-14.917
				c4.129-13.19,10.275-25.19,17.824-36.741c0.366-0.56,0.892-0.904,1.55-1.016c3.932-0.665,7.875-1.285,11.814-1.89
				c8.569-1.317,17.159-2.54,25.763-3.593c7.277-0.892,14.629-1.698,21.946-2.126c2.909-0.169,5.85-0.285,8.761-0.22
				c2.018,0.047,4.359,0.164,6.311,0.699c2.835,0.777,4.813,4.358,6.008,6.81c2.007,4.119,3.538,8.768,4.872,13.147
				c1.782,5.863,3.314,11.828,4.736,17.788c1.601,6.704,3.063,13.447,4.445,20.2c2.705,13.214,5.124,26.497,7.373,39.797
				c1.033,6.115,2.049,12.243,2.977,18.373c0.069,0.453,0.017,0.862-0.171,1.281c-1.32,2.988-6.23,6.185-8.9,7.682
				c-4.678,2.626-9.896,4.629-14.985,6.279c-8.505,2.755-17.39,4.727-26.181,6.312c-8.773,1.58-17.834,1.987-26.73,1.637
				c-8.704-0.344-17.43-1.419-25.97-3.112c-7.589-1.506-15.205-3.521-22.475-6.186c-5.341-1.958-11.241-4.507-15.894-7.816
				c-2.97-2.112-6.742-5.515-6.221-9.571C161.601,353.563,161.972,352.657,162.536,351.847z"/>
			<path style="fill-rule:evenodd;clip-rule:evenodd;fill:#E6AD3F;" d="M164.434,353.164c-7.71,11.097,50.465,31.987,93.923,24.152
				c43.456-7.833,48.36-18.93,48.36-18.93s-16.822-110.968-28.736-114.23c-11.917-3.264-73.595,7.18-73.595,7.18
				C173.756,298.201,189.015,317.789,164.434,353.164z"/>
			<path style="fill-rule:evenodd;clip-rule:evenodd;fill:#BB8D42;" d="M191.615,372.159c19.076,5.739,44.785,9.114,66.742,5.157
				c2.54-0.457,4.943-0.928,7.228-1.406c2.799-3.325,4.463-5.525,4.463-5.525l30.029-21.54l-38.513-77.677
				c0,0,14.36,36.227,5.222,46.672c-9.138,10.443-40.142,16.317-46.346,16.644c-6.201,0.328,6.527-30.679,6.204-62.99
				c-22.522,11.752-32.966,72.457-35.576,86.818C190.188,363.147,190.348,367.616,191.615,372.159L191.615,372.159z
				 M212.608,341.829c16.32-1.306,36.064-5.55,47.162-11.75c11.096-6.201,10.769,10.444-11.749,13.871
				C225.502,347.378,209.181,343.786,212.608,341.829z"/>
			<path style="fill-rule:evenodd;clip-rule:evenodd;fill:#0F0E0E;" d="M320.455,284.47c4.121,12.242,4.777,26.38,2.329,39.264
				c-1.741,9.177-6.018,21.733-14.167,27.397c-0.871,0.605-1.834,1.023-2.865,1.216c-4.747,0.883-9.198-3.267-12.022-6.44
				c-4.048-4.548-7.534-10.165-10.55-15.462c-3.251-5.709-6.216-11.625-8.985-17.594c-1.276-2.75-2.54-5.538-3.706-8.343
				c-0.353-0.851-0.175-1.788,0.468-2.487l19.272-20.888c0.527-0.573,1.224-0.842,1.985-0.768l26.353,2.612
				C319.464,283.066,320.167,283.623,320.455,284.47z"/>
			<path style="fill-rule:evenodd;clip-rule:evenodd;fill:#D17F59;" d="M318.258,285.277c8.357,24.805,1.294,55.485-10.915,63.973
				c-12.211,8.484-34.71-45.694-34.71-45.694l19.272-20.888L318.258,285.277z"/>
			<path style="fill-rule:evenodd;clip-rule:evenodd;fill:#0F0E0E;" d="M209.079,220.964c4.928-22.995,24.737-29.849,46.006-25.759
				c8.017,1.542,15.447,5.184,20.52,11.731c1.855,2.394,3.886,5.995,4.506,9.021c0.025,0.126,0.041,0.233,0.048,0.36
				c0.157,3.497,0.136,7.083,0.059,10.579c-0.164,7.547-0.711,15.205-1.917,22.662c-1.061,6.585-2.736,13.721-5.729,19.711
				c-4.732,9.462-13.365,15.373-23.82,16.666c-8.301,1.027-17.113-1-24.027-5.741c-2.423-1.661-4.595-3.61-6.454-5.894
				c-4.837-5.938-6.908-13.346-7.99-20.798c-0.692-4.754-0.995-9.596-1.152-14.395c-0.197-5.889-0.173-11.796-0.099-17.688
				C209.031,221.26,209.044,221.122,209.079,220.964z"/>
			<path style="fill-rule:evenodd;clip-rule:evenodd;fill:#D17F59;" d="M211.341,221.45c-0.385,31.321,1.16,47.559,14.692,56.838
				c13.535,9.28,35.575,7.734,44.467-10.052c8.893-17.787,7.347-51.813,7.347-51.813s-3.092-15.079-23.199-18.947
				C234.539,193.61,215.98,199.796,211.341,221.45z"/>
			<path style="fill-rule:evenodd;clip-rule:evenodd;fill:#0F0E0E;" d="M170.264,278.892l21.015,1.469
				c0.58,0.041,1.063,0.261,1.476,0.671l20.916,20.888c0.645,0.643,0.849,1.539,0.549,2.399c-0.965,2.771-2.037,5.535-3.122,8.261
				c-2.35,5.91-4.906,11.786-7.761,17.47c-2.625,5.223-5.703,10.775-9.376,15.332c-1.515,1.877-3.278,3.761-5.277,5.13
				c-1.817,1.247-3.912,2.11-6.153,1.934c-1.3-0.104-2.509-0.548-3.595-1.264c-6.248-4.102-9.678-12.718-11.501-19.654
				c-2.477-9.41-3.2-19.848-2.755-29.548c0.327-7.165,1.318-14.453,3.188-21.382C168.162,279.519,169.151,278.815,170.264,278.892z"
				/>
			<path style="fill-rule:evenodd;clip-rule:evenodd;fill:#D17F59;" d="M170.102,281.198c-6.696,24.805-2.818,59.564,10.104,68.052
				c12.92,8.484,31.833-45.694,31.833-45.694l-20.92-20.888L170.102,281.198z"/>
			<path style="fill-rule:evenodd;clip-rule:evenodd;fill:#0F0E0E;" d="M323.288,298.139c-8.35-3.969-17.79-5.988-26.815-3.188
				c-2.409,0.745-4.75,1.831-6.842,3.241c-0.722,0.487-1.622,1.139-2.237,1.764c-0.607,0.616-1.437,0.838-2.27,0.604
				c-0.833-0.231-1.427-0.852-1.626-1.692l-11.633-48.956c-0.267-1.124,0.318-2.254,1.391-2.683
				c2.276-0.908,5.118-1.532,7.517-1.893c5.561-0.835,11.293-0.563,16.671,1.138c20.534,6.499,27.103,30.3,29.136,49.33
				c0.092,0.855-0.26,1.634-0.961,2.131C324.92,298.433,324.064,298.507,323.288,298.139z"/>
			<path style="fill-rule:evenodd;clip-rule:evenodd;fill:#E6AD3F;" d="M324.281,296.049c-24.721-11.749-38.536,2.284-38.536,2.284
				l-11.63-48.955C274.115,249.378,317.44,232.079,324.281,296.049z"/>
			<path style="fill-rule:evenodd;clip-rule:evenodd;fill:#FFFFFF;" d="M324.281,296.049c-1.513-0.72-2.988-1.34-4.419-1.877
				c-0.708-13.694-9.777-33.549-20.684-41.768c0,0,0.315-0.907,0.841-2.385C310.647,254.83,321.191,267.141,324.281,296.049z"/>
			<path style="fill-rule:evenodd;clip-rule:evenodd;fill:#0F0E0E;" d="M162.54,299.785c0.948-22.109,7.537-46.648,29.973-55.804
				c6.055-2.471,12.647-3.517,19.17-3.379c2.794,0.057,6.1,0.322,8.839,0.978c0.981,0.234,1.671,1.03,1.766,2.033l2.181,23.179
				c0.043,0.473-0.041,0.892-0.267,1.311l-16.848,31.326c-0.331,0.614-0.858,1.013-1.54,1.162c-0.682,0.149-1.328,0.012-1.885-0.407
				c-0.598-0.448-1.505-0.892-2.175-1.199c-2.204-1.008-4.624-1.657-7.01-2.037c-9.724-1.539-20.107,1.178-28.969,5.055
				c-0.751,0.33-1.555,0.253-2.231-0.211C162.868,301.328,162.505,300.605,162.54,299.785z"/>
			<path style="fill-rule:evenodd;clip-rule:evenodd;fill:#E6AD3F;" d="M164.853,299.884c26.859-11.749,40.465-1.551,40.465-1.551
				l16.848-31.324l-2.18-23.179C219.986,243.83,167.79,231.344,164.853,299.884z"/>
			<path style="fill-rule:evenodd;clip-rule:evenodd;fill:#FFFFFF;" d="M164.853,299.884c1.347-0.589,2.659-1.121,3.94-1.605
				c-0.001-0.114-0.003-0.227-0.003-0.344c0-17.951,9.466-38.839,18.767-44.388c-0.95-0.881-1.874-1.693-2.777-2.453
				C174.655,258.717,165.998,273.126,164.853,299.884z"/>
			<path style="fill-rule:evenodd;clip-rule:evenodd;fill:#0F0E0E;" d="M213.288,339.16c-0.583-0.011-1.046-0.492-1.036-1.075
				c0.012-0.584,0.495-1.047,1.077-1.037c12.21,0.255,23.555-2.565,33.078-6.661c12.546-5.393,21.891-12.967,25.886-18.625
				c0.336-0.477,0.994-0.593,1.476-0.256c0.475,0.335,0.591,0.994,0.256,1.474c-4.179,5.918-13.86,13.799-26.779,19.355
				C237.482,336.533,225.839,339.423,213.288,339.16z"/>
			<path style="fill-rule:evenodd;clip-rule:evenodd;fill:#0F0E0E;" d="M219.237,352.426c-0.58,0.075-1.109-0.335-1.183-0.914
				c-0.071-0.577,0.338-1.107,0.917-1.18c23.44-3.004,47.393-1.807,47.465-1.802c0.581,0.024,1.033,0.521,1.006,1.104
				c-0.029,0.584-0.521,1.034-1.107,1.005C266.267,350.638,242.479,349.447,219.237,352.426z"/>
			<path style="fill-rule:evenodd;clip-rule:evenodd;fill:#0F0E0E;" d="M164.277,295.942c-0.341,0.213-0.789,0.106-1-0.235
				c-0.21-0.342-0.106-0.791,0.236-1.003c8.957-5.539,24.096-6.957,24.139-6.96c0.399-0.037,0.755,0.256,0.793,0.655
				c0.038,0.4-0.256,0.756-0.655,0.792C187.747,289.197,172.945,290.583,164.277,295.942z"/>
			<path style="fill-rule:evenodd;clip-rule:evenodd;fill:#0F0E0E;" d="M323.461,287.216c0.393,0.16,0.579,0.608,0.418,1.001
				c-0.161,0.394-0.61,0.579-1.004,0.419c-10.195-4.188-27.64-2.195-27.692-2.189c-0.421,0.047-0.804-0.259-0.85-0.68
				c-0.044-0.423,0.26-0.804,0.683-0.85C295.066,284.911,312.892,282.874,323.461,287.216z"/>
		</g>
		<g>
			<g>
				<path style="fill-rule:evenodd;clip-rule:evenodd;fill:#0F0E0E;" d="M175.221,391.628c12.423-12.772,28.038-17.554,45.374-13.68
					c5.564,1.242,11.006,3.31,16.057,5.949c2.141,1.12,4.485,2.449,6.446,3.882c0.262,0.192,0.45,0.401,0.618,0.677l8.497,14.158
					c0.607,1.012,0.364,2.3-0.569,3.02c-0.687,0.53-1.488,1.022-2.227,1.463c-2.153,1.285-4.431,2.42-6.707,3.464
					c-9.742,4.459-20.538,7.733-30.891,10.395c-10.176,2.617-25.961,5.191-33.825-3.937c-2.548-2.959-3.811-6.635-4.274-10.468
					c-0.553-4.532-0.02-9.324,0.893-13.775C174.706,392.323,174.897,391.956,175.221,391.628z"/>
				<path style="fill-rule:evenodd;clip-rule:evenodd;fill:#CD591C;" d="M176.878,393.24c-4.497,21.954,4.873,33.058,34.363,25.477
					c29.49-7.579,38.988-14.912,38.988-14.912l-8.497-14.157C241.732,389.647,205.871,363.44,176.878,393.24z"/>
				<path style="fill-rule:evenodd;clip-rule:evenodd;fill:#0F0E0E;" d="M186.408,402.266c-0.012-0.636,0.493-1.161,1.13-1.175
					c0.635-0.012,1.162,0.493,1.174,1.13c0.124,6.148,1.789,10.561,4.432,13.476c2.938,3.244,7.143,4.668,11.796,4.591
					c0.637-0.009,1.163,0.498,1.171,1.135c0.01,0.636-0.498,1.159-1.133,1.17c-5.298,0.086-10.117-1.573-13.543-5.352
					C188.433,413.929,186.543,409.017,186.408,402.266z"/>
				<path style="fill-rule:evenodd;clip-rule:evenodd;fill:#0F0E0E;" d="M228.861,377.392
					c24.707-17.11,74.766-42.927,105.307-37.296c11.799,2.175,22.685,8.976,26.183,21.012c2.344,8.07,0.63,16.485-3.655,23.589
					c-5.393,8.949-14.333,15.294-23.8,19.362c-22.655,9.728-47.265,13.101-71.649,9.216c-7.403-1.18-14.748-3.009-21.799-5.56
					c-2.817-1.019-5.674-2.124-8.329-3.516c-0.951-0.496-1.545-1.388-1.641-2.454l-1.931-21.542
					C227.447,379.075,227.931,378.036,228.861,377.392z"/>
				<path style="fill-rule:evenodd;clip-rule:evenodd;fill:#0F0E0E;" d="M229.3,378.025c24.577-17.02,74.478-42.75,104.728-37.171
					c11.499,2.119,22.169,8.717,25.581,20.469c2.286,7.864,0.598,16.057-3.575,22.977c-5.308,8.807-14.132,15.048-23.444,19.048
					c-22.566,9.693-46.953,13.032-71.223,9.164c-7.339-1.168-14.667-2.993-21.659-5.523c-2.706-0.979-5.674-2.133-8.232-3.471
					c-0.716-0.376-1.158-1.037-1.232-1.843l-1.929-21.542C228.238,379.281,228.598,378.514,229.3,378.025z"/>
				<path style="fill-rule:evenodd;clip-rule:evenodd;fill:#7C6052;" d="M230.617,379.927
					c26.392-18.275,74.669-42.02,102.992-36.798c32.324,5.96,34.217,42.568-1.933,58.093c-54.712,23.501-99.128,0.247-99.128,0.247
					L230.617,379.927z"/>
				<path style="fill-rule:evenodd;clip-rule:evenodd;fill:#9F8B81;" d="M239.329,374.204
					c27.318-17.094,68.845-35.766,94.279-31.075c7.376,1.359,13.164,4.319,17.281,8.258
					c-33.975-18.114-93.664,15.419-104.192,22.036C243.347,375.166,240.984,375.046,239.329,374.204z"/>
				<path style="fill-rule:evenodd;clip-rule:evenodd;fill:#685045;" d="M355.169,356.798c7.999,13.784,0.957,33.925-23.493,44.424
					c-21.323,9.162-41.08,11.215-57.257,10.316c-3.016-9.487,1.362-19.536,19.459-22.876
					C324.977,389.084,344.709,370.565,355.169,356.798z"/>
				<path style="fill-rule:evenodd;clip-rule:evenodd;fill:#FFFFFF;" d="M191.434,417.24c-1.897-2.094-3.35-4.826-4.198-8.261
					c-3.699-0.394-7.389-0.894-11.048-1.519c1.567,9.085,8.045,14.085,20.57,13.601C194.761,420.185,192.96,418.925,191.434,417.24z
					"/>
			</g>
			<g>
				<path style="fill-rule:evenodd;clip-rule:evenodd;fill:#0F0E0E;" d="M230.181,370.44l30.352,8.484
					c1.076,0.301,1.772,1.299,1.684,2.413l-1.959,24.476c-0.101,1.238-1.156,2.178-2.397,2.128l-32.964-1.304
					c-0.707-0.029-1.31-0.339-1.741-0.9c-0.433-0.561-0.58-1.221-0.426-1.913c1.371-6.178,2.537-12.558,3.424-18.816
					c0.567-4.012,1.089-8.288,1.089-12.34c0-0.75,0.32-1.393,0.916-1.843C228.756,370.371,229.461,370.237,230.181,370.44z"/>
				<path style="fill-rule:evenodd;clip-rule:evenodd;fill:#E9BC9D;" d="M229.558,372.667c0,11.095-4.57,31.656-4.57,31.656
					l32.962,1.307l1.961-24.479L229.558,372.667z"/>
				<path style="fill-rule:evenodd;clip-rule:evenodd;fill:#0F0E0E;" d="M257.308,378.204c3.795-2.344,8.349-4.177,12.566-5.604
					c5.409-1.826,11.067-3.207,16.712-4.038c9.443-1.39,21.286-1.537,29.747,3.504c8.843,5.266,12.359,16.716,12.051,26.486
					c-0.343,10.964-5.461,22.355-16.363,26.306c-8.77,3.174-20.517,0.778-29.153-1.918c-7.206-2.248-14.58-5.383-21.159-9.096
					c-2.319-1.309-4.747-2.791-6.817-4.467c-1.454-1.182-3.424-2.963-3.049-5.055l4.406-24.56
					C256.366,379.094,256.727,378.561,257.308,378.204z"/>
				<path style="fill-rule:evenodd;clip-rule:evenodd;fill:#CD591C;" d="M258.524,380.173c11.097-6.855,41.285-15.26,56.626-6.121
					c15.339,9.139,15.013,41.778-3.917,48.631c-18.93,6.855-57.833-13.952-57.116-17.952L258.524,380.173z"/>
				<path style="fill-rule:evenodd;clip-rule:evenodd;fill:#0F0E0E;" d="M252.301,377.746c0.101,2.169,0.153,4.34,0.08,6.509
					c-0.284,8.317-2.552,15.185-6.615,22.4c-0.46,0.817-1.206,1.347-2.129,1.517c-2.617,0.482-5.262,0.821-7.906,1.137
					c-6.629,0.79-13.296,1.261-19.967,1.455c-19.583,0.573-39.884-1.238-58.67-6.999c-9.037-2.771-17.836-7.575-23.37-15.46
					c-4.375-6.234-6.11-13.64-4.988-21.173c2.017-13.524,12.706-24.771,26.122-27.438c28.81-5.722,72.416,20.388,96.034,35.601
					C251.752,375.85,252.257,376.726,252.301,377.746z"/>
				<path style="fill-rule:evenodd;clip-rule:evenodd;fill:#0F0E0E;" d="M251.532,377.78c0.099,2.148,0.15,4.299,0.078,6.449
					c-0.277,8.202-2.499,14.91-6.514,22.045c-0.35,0.618-0.899,1.013-1.598,1.142c-2.582,0.473-5.253,0.817-7.856,1.127
					c-6.6,0.785-13.258,1.257-19.901,1.451c-19.459,0.568-39.763-1.245-58.419-6.968c-8.866-2.719-17.534-7.426-22.964-15.163
					c-4.264-6.076-5.952-13.281-4.858-20.616c1.967-13.202,12.411-24.193,25.509-26.795c28.47-5.656,71.88,20.3,95.465,35.49
					C251.123,376.361,251.496,377.009,251.532,377.78z"/>
				<path style="fill-rule:evenodd;clip-rule:evenodd;fill:#7C6052;" d="M249.223,377.887
					c-27.109-17.46-67.477-40.388-93.764-35.168c-26.285,5.225-38.16,45.613,2.54,58.096c40.697,12.484,85.08,4.326,85.08,4.326
					C249.206,394.261,249.622,386.646,249.223,377.887z"/>
				<path style="fill-rule:evenodd;clip-rule:evenodd;fill:#9F8B81;" d="M249.223,377.887
					c-27.109-17.46-67.477-40.388-93.764-35.168c-4.53,0.901-8.631,2.846-12.109,5.511c9.368-3.165,24.087-4.154,38.577-0.315
					c17.76,4.709,57.405,29.085,67.393,35.331C249.353,381.481,249.306,379.709,249.223,377.887z"/>
				<path style="fill-rule:evenodd;clip-rule:evenodd;fill:#685045;" d="M134.072,359.908c-6.453,14.229-1.629,33.069,23.927,40.906
					c40.697,12.484,85.08,4.326,85.08,4.326c0.915-1.625,1.701-3.174,2.378-4.666c-11.24-0.878-26.028-2.68-43.946-6.264
					C166.428,387.195,139.829,375.213,134.072,359.908z"/>
				<path style="fill-rule:evenodd;clip-rule:evenodd;fill:#A74618;" d="M269.97,383.85c3.165-0.632,13.69-2.219,21.797-0.62
					c14.161,2.796,14.863,23.6-2.54,25.425c-13.369,1.403-25.457-5.223-25.457-5.223L269.97,383.85z"/>
				<path style="fill-rule:evenodd;clip-rule:evenodd;fill:#0F0E0E;" d="M303.571,370.591c-0.61-0.188-0.948-0.836-0.76-1.444
					c0.189-0.609,0.838-0.948,1.448-0.761c7.84,2.465,12.384,10.393,13.803,19.6c0.724,4.688,0.637,9.725-0.239,14.538
					c-0.876,4.829-2.551,9.429-4.996,13.221c-4.132,6.406-10.436,10.54-18.813,9.723c-0.634-0.059-1.099-0.62-1.039-1.256
					c0.061-0.632,0.62-1.099,1.257-1.037c7.384,0.72,12.968-2.966,16.65-8.677c2.285-3.541,3.849-7.849,4.675-12.381
					c0.828-4.548,0.907-9.324,0.219-13.777C314.48,379.947,310.457,372.755,303.571,370.591z"/>
				<path style="fill-rule:evenodd;clip-rule:evenodd;fill:#0F0E0E;" d="M264.696,395.59c-0.234,1.435,2.932,3.986,2.676,5.551
					c-1.018,6.284-3.26,5.913-7.682,7.978c-2.892,1.349-6.357,0.964-8.747-1.2c-3.464-3.138-2.794-7.839-0.329-11.359
					c1.094-1.563,2.19-3.305,2.018-5.286c-0.082-0.946-0.335-1.934-0.499-2.875c-0.273-1.564-0.382-3.072-0.303-4.663
					c0.1-2.004,0.819-3.887,2.382-5.202c2.352-1.988,5.634-1.906,8.42-1.037c3.484,1.087,7.164,4.103,7.377,8.021
					C270.041,386.055,265.085,393.215,264.696,395.59z"/>
				<path style="fill-rule:evenodd;clip-rule:evenodd;fill:#FFFFFF;" d="M270.135,385.156c-7.18-7.507-15.666-7.833-15.993-1.307
					c-0.327,6.529,2.938,7.509-1.631,14.035c-4.571,6.527,1.304,11.424,6.199,9.14C263.606,404.737,272.094,405.392,270.135,385.156
					z"/>
				<path style="fill-rule:evenodd;clip-rule:evenodd;fill:#CD591C;" d="M268.548,383.633c-2.483-2.194-5.039-3.564-7.294-4.12
					c-2.054,0.436-3.43,1.941-3.557,4.491c-0.326,6.528,2.938,7.509-1.632,14.035c-3.139,4.484-1.349,8.199,1.665,9.343
					c0.328-0.091,0.643-0.244,0.98-0.357c4.571-1.526,8.018-1.757,10.526-5.843C272.022,396.636,273.118,387.664,268.548,383.633z"
					/>
				<path style="fill-rule:evenodd;clip-rule:evenodd;fill:#FFFFFF;" d="M276.702,382.201c0.19-0.608,0.836-0.948,1.444-0.76
					c0.609,0.189,0.95,0.837,0.76,1.446c-3.871,12.421-4.192,23.323-4.192,23.355c-0.02,0.636-0.553,1.134-1.188,1.116
					c-0.64-0.021-1.139-0.553-1.116-1.189C272.41,406.137,272.739,394.91,276.702,382.201z"/>
				<path style="fill-rule:evenodd;clip-rule:evenodd;fill:#FFFFFF;" d="M284.208,383.18c0.19-0.609,0.838-0.948,1.445-0.759
					c0.609,0.19,0.947,0.838,0.757,1.444c-3.868,12.424-4.19,23.326-4.19,23.355c-0.021,0.637-0.554,1.137-1.191,1.116
					c-0.635-0.018-1.133-0.553-1.113-1.189C279.916,407.117,280.246,395.891,284.208,383.18z"/>
				<path style="fill-rule:evenodd;clip-rule:evenodd;fill:#FFFFFF;" d="M292.528,384.16c0.191-0.609,0.841-0.949,1.449-0.761
					c0.61,0.189,0.947,0.837,0.758,1.446c-3.872,12.422-4.192,23.324-4.194,23.355c-0.018,0.636-0.552,1.134-1.186,1.116
					c-0.637-0.021-1.136-0.553-1.116-1.189C288.241,408.095,288.57,396.869,292.528,384.16z"/>
				<path style="fill-rule:evenodd;clip-rule:evenodd;fill:#FFFFFF;" d="M318.062,387.985c0.724,4.688,0.637,9.725-0.239,14.538
					c-0.249,1.372-0.563,2.726-0.939,4.048c-0.257,0.901-0.546,1.788-0.859,2.655c-0.855,2.336-1.923,4.539-3.197,6.518
					c-2.376,3.686-5.475,6.622-9.27,8.29c2.779-0.093,5.374-0.519,7.676-1.352c7.203-2.607,11.713-8.951,13.692-16.31
					c0.235-0.883,0.435-1.777,0.6-2.683c2.071-11.409-1.573-24.393-10.375-29.638c-1.477-0.878-3.091-1.596-4.814-2.168
					C314.508,375.637,317.062,381.493,318.062,387.985z"/>
			</g>
		</g>
		<g>
			<g>
				<g>
					<path style="fill-rule:evenodd;clip-rule:evenodd;fill:#0F0E0E;" d="M288.338,215.013c2.178-2.987,5.023-5.676,8.352-7.336
						c2.9-1.449,6.246-2.118,9.42-1.212c4.428,1.262,7.012,5.069,8.279,9.288c0.625,2.08,0.822,4.236,0.596,6.395
						c-0.62,5.857-4.249,10.985-8.779,14.563c-4.907,3.879-11.151,6.222-17.42,6.37c-2.495,0.059-4.996-0.559-6.584-2.629
						c-2.854-3.725-0.991-10.034,0.493-13.975c1.007-2.681,2.247-5.307,3.589-7.836c0.62-1.171,1.271-2.36,1.965-3.492
						C288.277,215.099,288.303,215.06,288.338,215.013z"/>
					<path style="fill-rule:evenodd;clip-rule:evenodd;fill:#E9BC9D;" d="M289.96,216.195c7.19-9.861,18.91-11.842,22.505,0.134
						c3.601,11.979-9.521,24.409-23.725,24.743C274.537,241.408,289.96,216.195,289.96,216.195z"/>
					<path style="fill-rule:evenodd;clip-rule:evenodd;fill:#0F0E0E;" d="M308.251,220.962c-1.259-3.826-3.56-5.13-7.784-3.181
						c-2.816,1.301-4.612,3.668-6.067,6.322c-0.555,1.011-0.99,1.593-0.841,2.755c3.141-0.502,6.145,0.355,4.954,4.573
						c-0.385,1.354-2.245,3.352-3.611,3.105c0.685-0.948,2.189-1.292,2.505-3.357c0.619-4.069-3.206-2.92-5.507-1.861
						c-0.463-3.153-1.368-2.849,0.455-6.312C298.12,212.06,310.24,214.962,308.251,220.962z"/>
					<path style="fill-rule:evenodd;clip-rule:evenodd;fill:#D17F59;" d="M297.296,233.367c4.638,0.013,9.608-5.834,10.855-12.69
						c-1.279-3.605-3.568-4.796-7.685-2.896c-2.816,1.301-4.612,3.668-6.067,6.322c-0.555,1.011-0.99,1.593-0.841,2.755
						c3.141-0.502,6.145,0.355,4.954,4.573C298.34,232.033,297.877,232.764,297.296,233.367z"/>
				</g>
				<path style="fill-rule:evenodd;clip-rule:evenodd;fill:#0F0E0E;" d="M198.099,215.013c-2.178-2.987-5.026-5.676-8.352-7.336
					c-2.902-1.449-6.248-2.118-9.422-1.212c-4.426,1.262-7.01,5.069-8.279,9.288c-0.624,2.08-0.824,4.236-0.595,6.395
					c0.622,5.857,4.25,10.985,8.779,14.563c4.907,3.879,11.154,6.222,17.418,6.37c2.498,0.059,4.998-0.559,6.585-2.629
					c2.856-3.725,0.993-10.034-0.492-13.975c-1.009-2.681-2.247-5.307-3.586-7.836c-0.623-1.171-1.273-2.36-1.966-3.492
					C198.16,215.099,198.134,215.06,198.099,215.013z"/>
				<path style="fill-rule:evenodd;clip-rule:evenodd;fill:#E9BC9D;" d="M196.477,216.195c-7.191-9.861-18.912-11.842-22.509,0.134
					c-3.596,11.979,9.526,24.409,23.728,24.743C211.899,241.408,196.477,216.195,196.477,216.195z"/>
				<path style="fill-rule:evenodd;clip-rule:evenodd;fill:#0F0E0E;" d="M178.185,220.962c1.262-3.826,3.559-5.13,7.783-3.181
					c2.817,1.301,4.614,3.668,6.068,6.322c0.553,1.011,0.991,1.593,0.84,2.755c-3.14-0.502-6.145,0.355-4.952,4.573
					c0.384,1.354,2.243,3.352,3.608,3.105c-0.684-0.948-2.19-1.292-2.505-3.357c-0.618-4.069,3.207-2.92,5.509-1.861
					c0.464-3.153,1.366-2.849-0.457-6.312C188.315,212.06,176.196,214.962,178.185,220.962z"/>
				<path style="fill-rule:evenodd;clip-rule:evenodd;fill:#D17F59;" d="M189.14,233.367c-4.637,0.013-9.608-5.834-10.856-12.69
					c1.281-3.605,3.567-4.796,7.685-2.896c2.817,1.301,4.614,3.668,6.068,6.322c0.553,1.011,0.991,1.593,0.84,2.755
					c-3.14-0.502-6.145,0.355-4.952,4.573C188.095,232.033,188.557,232.764,189.14,233.367z"/>
				<path style="fill-rule:evenodd;clip-rule:evenodd;fill:#0F0E0E;" d="M191.939,182.456c7.444-33.706,37.413-42.785,68.296-37.02
					c11.737,2.19,22.803,7.345,30.37,16.819c2.126,2.664,3.939,5.637,5.265,8.78c0.526,1.246,1.073,2.718,1.354,4.05
					c0.027,0.128,0.042,0.241,0.049,0.371c0.24,5.137,0.205,10.412,0.087,15.547c-0.249,11.085-1.084,22.34-2.912,33.276
					c-1.597,9.542-4.111,19.883-8.56,28.518c-5.949,11.547-16.027,19.411-28.568,22.649c-14.062,3.634-30.045,1.046-42.14-7.003
					c-3.792-2.524-7.18-5.515-10.044-9.063c-6.914-8.562-9.883-19.239-11.438-29.95c-1.002-6.889-1.443-13.903-1.673-20.858
					c-0.284-8.539-0.247-17.107-0.138-25.648C191.887,182.759,191.905,182.617,191.939,182.456z"/>
				<path style="fill-rule:evenodd;clip-rule:evenodd;fill:#E9BC9D;" d="M194.201,182.955c-0.589,46.045,1.757,69.92,22.26,83.564
					c20.504,13.645,53.897,11.37,67.373-14.778c13.474-26.151,11.129-76.176,11.129-76.176s-4.685-22.169-35.149-27.855
					C229.349,142.024,201.228,151.121,194.201,182.955z"/>
				<path style="fill-rule:evenodd;clip-rule:evenodd;fill:#D17F59;" d="M194.123,194.77c0.003,1.788,0.014,3.539,0.033,5.252
					c10.742-11.019,25.552-17.708,25.552-17.708s0.491,7.506,9.629,6.689c9.139-0.815,20.398-5.874,20.398-5.874
					s1.306,3.427,8.976,3.427c7.67,0,15.994-4.079,17.298-3.916c1.306,0.162,16.973,17.786,16.973,15.502
					c0-1.892-2.686-29.297-8.985-39.405c-1.47-1.288-3.127-2.551-4.998-3.751C267.798,153.706,199.591,151.602,194.123,194.77z"/>
				<path style="fill-rule:evenodd;clip-rule:evenodd;fill:#0F0E0E;" d="M293.005,221.95c-0.683-13.048-4.71-22.998-8.533-32.132
					c-3.595-8.579-6.072-16.225-6.072-16.225s-4.728,9.055-18.496,9.641c-13.765,0.586,1.76-9.666,1.76-9.666
					s-36.03,15.817-36.325,8.787c-0.291-7.028,4.103-7.615,4.103-7.615s-26.281,7.325-29.796,19.626
					c-3.514,12.304-4.846,26.331-4.846,26.331s-16.126-12.889-17.297-27.535c-1.171-14.646,9.508-12.245,9.508-12.245
					s-18.749-2.636-12.009-12.009c6.736-9.374,25.484-17.577,25.484-17.577s-14.356-7.907-9.961-11.13
					c4.393-3.222,36.028-12.011,45.988-9.96c9.961,2.051-2.928-5.565,4.687-7.616c7.617-2.051,35.444,18.455,35.444,18.455
					s-8.401-10.632-2.931-11.645c5.475-1.014,9.575,13.436,9.575,13.436s14.152-1.497,16.201,2.896
					c2.053,4.393-9.032,4.691-9.032,4.691s13.294,7.847,18.859,22.785C314.881,188.18,293.005,221.95,293.005,221.95z"/>
				<path style="fill-rule:evenodd;clip-rule:evenodd;fill:#343434;" d="M199.735,139.714c-2.018,0.73-3.503,1.387-4.214,1.889
					c-4.009,2.841,9.089,9.814,9.089,9.814s-3.155,2.288-7.541,4.663c32.814,8.658,68.889,11.347,103.578,8.208
					c-2.693-4.211-5.925-7.475-8.601-9.751C261.876,158.012,226.935,153.08,199.735,139.714z"/>
			</g>
			<g>
				<path style="fill-rule:evenodd;clip-rule:evenodd;fill:#D17F59;" d="M232.438,229.312c7.614,3.405,14.524,0.425,14.524,1.14
					c0,5.532-3.868,8.503-8.704,8.045C233.315,238.026,229.436,231.947,232.438,229.312z"/>
				<path style="fill-rule:evenodd;clip-rule:evenodd;fill:#0F0E0E;" d="M263.642,204.53c-3.023-0.493-6.055,2.69-6.774,7.105
					c-0.718,4.416,1.148,8.396,4.17,8.887c3.022,0.493,6.055-2.69,6.775-7.105C268.529,209.001,266.661,205.021,263.642,204.53z"/>
				<path style="fill-rule:evenodd;clip-rule:evenodd;fill:#FFFFFF;" d="M266.216,205.575c-1.132-0.185-2.202,0.584-2.387,1.717
					c-0.185,1.133,0.584,2.202,1.716,2.385c1.134,0.184,2.202-0.584,2.388-1.717C268.117,206.826,267.349,205.759,266.216,205.575z"
					/>
				<path style="fill-rule:evenodd;clip-rule:evenodd;fill:#0F0E0E;" d="M271.308,202.406c-2.227,3.074-11.854,1.821-12.961-2.288
					c-2.289-8.494,4.682-3.515,6.663-2.212C268.626,200.283,272.878,200.236,271.308,202.406z"/>
				<path style="fill-rule:evenodd;clip-rule:evenodd;fill:#0F0E0E;" d="M220.499,203.292c3.058-0.158,5.723,3.337,5.954,7.806
					c0.231,4.467-2.063,8.218-5.118,8.376c-3.058,0.158-5.723-3.337-5.953-7.805C215.15,207.2,217.443,203.45,220.499,203.292z"/>
				<path style="fill-rule:evenodd;clip-rule:evenodd;fill:#FFFFFF;" d="M223.504,204.676c1.148-0.06,2.124,0.823,2.184,1.968
					c0.058,1.146-0.824,2.124-1.969,2.183c-1.145,0.059-2.123-0.822-2.182-1.968C221.478,205.711,222.357,204.734,223.504,204.676z"
					/>
				<path style="fill-rule:evenodd;clip-rule:evenodd;fill:#0F0E0E;" d="M214.327,199.598c1.899,3.283,11.606,3.022,13.125-0.953
					c3.146-8.216-4.294-3.974-6.403-2.88C217.208,197.759,212.985,197.277,214.327,199.598z"/>
				<path style="fill-rule:evenodd;clip-rule:evenodd;fill:#0F0E0E;" d="M226.551,248.718c-0.594,0.233-1.266-0.057-1.5-0.651
					c-0.235-0.593,0.058-1.265,0.65-1.5c5.993-2.37,11.809-3.001,16.726-2.489c5.864,0.61,10.504,2.873,12.735,5.793
					c0.389,0.506,0.291,1.231-0.217,1.617c-0.505,0.387-1.23,0.29-1.618-0.216c-1.867-2.444-5.917-4.357-11.134-4.899
					C237.614,245.896,232.18,246.492,226.551,248.718z"/>
				<path style="fill-rule:evenodd;clip-rule:evenodd;fill:#0F0E0E;" d="M232.924,232.138c-0.451-0.452-0.451-1.184,0-1.635
					c0.453-0.452,1.185-0.452,1.638,0c1.002,1.004,2.764,1.492,4.594,1.607c2.275,0.142,4.561-0.285,5.662-1.02
					c0.529-0.354,1.249-0.21,1.602,0.321c0.354,0.533,0.212,1.25-0.318,1.604c-1.48,0.984-4.339,1.569-7.079,1.398
					C236.682,234.266,234.366,233.58,232.924,232.138z"/>
				<path style="fill-rule:evenodd;clip-rule:evenodd;fill:#D17F59;" d="M233.743,251.668c7.613,3.406,14.524,0.427,14.524,1.141
					c0,5.532-3.865,8.504-8.704,8.044C234.619,260.384,230.745,254.304,233.743,251.668z"/>
				<path style="fill-rule:evenodd;clip-rule:evenodd;fill:#0F0E0E;" d="M212.563,220.677c-0.504,0.335-1.184,0.2-1.519-0.303
					c-0.337-0.504-0.201-1.184,0.304-1.519c1.22-0.815,2.712-1.137,4.245-1.137c1.819,0,3.724,0.462,5.28,1.079
					c1.635,0.65,2.942,1.52,3.434,2.259l0.001,0.003l0.002-0.003c0.214,0.319,0.326,0.653,0.326,0.995
					c0,0.605-0.49,1.095-1.096,1.095c-0.545,0-0.997-0.398-1.082-0.92c-0.301-0.395-1.199-0.928-2.392-1.4
					c-1.319-0.524-2.938-0.917-4.475-0.917C214.459,219.908,213.39,220.126,212.563,220.677z"/>
				<path style="fill-rule:evenodd;clip-rule:evenodd;fill:#0F0E0E;" d="M271.8,219.506c0.502,0.336,0.641,1.016,0.306,1.52
					c-0.338,0.504-1.018,0.639-1.52,0.304c-0.827-0.551-1.898-0.768-3.03-0.768c-1.54,0-3.156,0.393-4.476,0.917
					c-1.19,0.472-2.087,1.005-2.391,1.401c-0.085,0.521-0.539,0.919-1.082,0.919c-0.604,0-1.095-0.49-1.095-1.095
					c0-0.342,0.112-0.676,0.326-0.994l0.002,0.002l0.001-0.002c0.493-0.739,1.799-1.61,3.435-2.259
					c1.554-0.617,3.459-1.08,5.279-1.08C269.088,218.37,270.575,218.692,271.8,219.506z"/>
			</g>
		</g>
		<g>
			<g>
				<path style="fill-rule:evenodd;clip-rule:evenodd;fill:#0F0E0E;" d="M284.082,269.614c5.415,6.885,10.832,13.769,16.004,20.839
					c3.459,4.726,6.815,9.53,9.952,14.479c2.878,4.546,5.596,9.226,7.851,14.116c3.813,8.26,3.393,18.353-1.601,26.032
					c-2.425,3.733-5.712,6.648-9.748,8.527c-4.905,2.282-10.433,2.808-15.754,2.069c-7.527-1.046-12.604-8.855-15.771-15.079
					c-2.141-4.209-3.887-8.621-5.456-13.073c-1.703-4.844-3.192-9.761-4.581-14.701c-1.692-6.021-3.229-12.082-4.763-18.145
					c-1.275-5.049-2.521-10.108-3.992-15.108c-0.875-2.988-1.785-6.037-2.215-9.13c-0.35-2.508-0.328-5.053,0.678-7.42
					c1.165-2.738,3.373-4.641,5.842-6.191c3.309-2.079,7.026-3.637,10.617-5.16c3.13-1.328,6.176-2.858,9.191-4.429
					c2.086-1.087,4.158-2.203,6.217-3.338c-1.22-0.958-2.093-2.28-2.642-3.769c-0.79-2.141-0.94-4.645,1.372-5.848l5.222-4.124
					c0.044-0.034,0.085-0.059,0.137-0.084c0.024-0.014,0.057-0.029,0.085-0.042c4.479-2.053,9.295-3.894,13.491-0.115
					c1.594,1.436,2.365,3.483,2.913,5.503c0.524,1.934,0.88,3.909,1.413,5.839c0.973,3.53-1.191,7.119-3.298,9.784
					c-2.512,3.177-5.612,5.995-8.695,8.612c-2.324,1.977-4.718,3.869-7.135,5.734C287.619,266.778,285.831,268.175,284.082,269.614z
					"/>
				<path style="fill-rule:evenodd;clip-rule:evenodd;fill:#0F0E0E;" d="M288.052,243.951c-2.438,1.359-4.895,2.686-7.36,3.973
					c-3.021,1.573-6.109,3.124-9.248,4.454c-3.483,1.479-7.302,3.09-10.507,5.104c-2.326,1.462-4.442,3.255-5.541,5.84
					c-0.951,2.235-0.955,4.645-0.625,7.012c0.42,3.005,1.339,6.112,2.192,9.02c1.47,4.997,2.723,10.086,3.999,15.137
					c1.533,6.056,3.067,12.111,4.759,18.123c1.383,4.922,2.868,9.83,4.567,14.653c1.551,4.405,3.295,8.816,5.415,12.981
					c3.024,5.945,7.963,13.66,15.189,14.663c9.784,1.36,19.225-1.746,24.75-10.251c4.866-7.484,5.263-17.245,1.547-25.291
					c-2.233-4.842-4.95-9.523-7.804-14.026c-3.123-4.931-6.474-9.728-9.921-14.437c-5.318-7.268-10.89-14.331-16.455-21.408
					c1.941-1.616,3.951-3.185,5.935-4.718c2.402-1.857,4.791-3.742,7.105-5.711c3.006-2.553,6.143-5.406,8.592-8.502
					c1.93-2.441,4.053-5.851,3.156-9.1c-0.532-1.935-0.89-3.91-1.411-5.843c-0.509-1.861-1.216-3.807-2.688-5.131
					c-3.913-3.522-8.474-1.674-12.652,0.242c-0.023,0.011-0.043,0.02-0.067,0.03l-5.279,4.17c-1.975,0.982-1.734,3.119-1.066,4.929
					C285.319,241.727,286.487,243.145,288.052,243.951z"/>
				<path style="fill-rule:evenodd;clip-rule:evenodd;fill:#E9BC9D;" d="M292.009,232.839l-5.525,4.741c0,0-0.441,4.814,4.86,4.814
					c5.302,0,6.139-1.194,6.139-1.194s-15.417,9.186-25.135,13.308c-16.887,7.163-17.563,9.23-13.165,24.193
					c6.531,22.23,15.152,71.576,32.028,73.92c21.205,2.945,30.946-16.968,23.88-32.282c-7.555-16.362-23.701-36.429-35.276-51.163
					c0,0,2.859-2.477,7.717-6.226c8.016-6.185,19.506-15.549,18.039-20.867c-1.156-4.185-1.485-8.131-3.416-9.871
					C299.555,229.872,296.614,230.728,292.009,232.839z"/>
				<path style="fill-rule:evenodd;clip-rule:evenodd;fill:#0F0E0E;" d="M297.297,238.529c0.451-0.451,1.186-0.451,1.635,0
					c0.451,0.452,0.451,1.184,0,1.635c-4.658,4.656-11.835,6.024-11.856,6.027c-0.625,0.123-2.538,0.939-2.66,0.312
					c-0.122-0.626,2.407-1.07,3.035-1.191c0.007-0.002,0.239-1.589,1.763-2.097C291.482,242.46,294.81,241.018,297.297,238.529z"/>
				<path style="fill-rule:evenodd;clip-rule:evenodd;fill:#0F0E0E;" d="M285.018,264.54c0.505-0.384,1.229-0.285,1.61,0.221
					c0.387,0.508,0.285,1.229-0.22,1.614c-2.136,1.621-4.369,3.479-5.995,5.012c-1.22,1.148-2.031,1.959-2.031,2.067
					c0,0.639-0.516,1.154-1.155,1.154c-0.639,0-1.157-0.516-1.157-1.154c0-0.806,1.108-2.186,2.759-3.747
					C280.49,268.142,282.798,266.226,285.018,264.54z"/>
				<path style="fill-rule:evenodd;clip-rule:evenodd;fill:#D17F59;" d="M296.728,344.86c-7.063-6.574-13.522-17.338-18.757-28.547
					c-2.234-4.787-4.245-9.654-5.987-14.311c-2.804-7.51-4.904-14.468-6.095-19.654c-0.278-1.223-0.548-2.368-0.794-3.447
					c-0.209-0.903-0.405-1.759-0.588-2.571c-0.242-1.104-0.462-2.127-0.646-3.083c-0.158-0.832-0.292-1.611-0.395-2.349
					c-1.013-7.227,0.878-10.326,9.652-16.723c-0.262,0.114-0.518,0.225-0.771,0.332c-14.448,6.129-17.028,8.526-14.72,18.462
					c0.165,0.708,0.356,1.455,0.567,2.243c0.288,1.08,0.621,2.239,0.987,3.488c0.125,0.421,0.248,0.852,0.374,1.291
					c0.209,0.74,0.422,1.506,0.639,2.296c5.459,20.022,12.483,55.277,24.326,66.722c0.669,0.646,1.355,1.221,2.057,1.707
					c1.474,1.023,3.017,1.68,4.633,1.904c5.471,0.761,10.177,0,14.03-1.814c0.089-0.041,0.175-0.082,0.261-0.125
					c0.068-0.033,0.139-0.067,0.205-0.102c-0.077-0.024-0.155-0.052-0.234-0.079c-0.746-0.263-1.488-0.58-2.229-0.955
					c-1.491-0.75-2.966-1.721-4.418-2.875C298.12,346.11,297.422,345.506,296.728,344.86z"/>
				<path style="fill-rule:evenodd;clip-rule:evenodd;fill:#D17F59;" d="M291.424,238.223c-0.878-0.423-1.449-1.312-1.665-2.814
					c-0.026-0.185-0.049-0.379-0.064-0.584l-3.212,2.755c0,0-0.188,2.039,1.144,3.464c0.121,0.13,0.256,0.256,0.405,0.374
					c0.524,0.417,1.227,0.744,2.162,0.893c0.347,0.055,0.732,0.084,1.15,0.084c0.008,0,0.012,0,0.021,0
					c1.366-0.591,2.867-1.382,4.256-2.42c0.584-0.438,1.148-0.918,1.676-1.445c0.451-0.451,1.186-0.451,1.635,0
					c0.052,0.052,0.098,0.107,0.14,0.166c0.026,0.043,0.052,0.087,0.076,0.133c0.067-0.085,0.128-0.17,0.184-0.25
					c0.939-1.352,0.686-2.19-2.109-1.108C294.714,238.441,292.731,238.85,291.424,238.223z"/>
			</g>
			<g>
				<path style="fill-rule:evenodd;clip-rule:evenodd;fill:#0F0E0E;" d="M200.29,269.614c-1.752-1.439-3.54-2.836-5.335-4.222
					c-2.416-1.865-4.811-3.758-7.136-5.734c-3.079-2.617-6.182-5.436-8.695-8.612c-2.107-2.665-4.269-6.254-3.296-9.784
					c0.533-1.93,0.89-3.905,1.413-5.839c0.55-2.02,1.32-4.067,2.915-5.503c4.195-3.779,9.01-1.938,13.49,0.115
					c0.029,0.012,0.059,0.027,0.086,0.042c1.691,0.838,3.722,3.356,4.669,4.945c1.888,3.165,2.342,6.655-0.568,8.887
					c2.056,1.135,4.121,2.246,6.204,3.331c3.014,1.571,6.06,3.102,9.191,4.429c3.59,1.523,7.309,3.081,10.616,5.16
					c2.468,1.551,4.678,3.453,5.843,6.191c1.004,2.367,1.028,4.912,0.676,7.42c-0.433,3.093-1.338,6.142-2.214,9.13
					c-1.47,5-2.716,10.06-3.992,15.108c-1.531,6.063-3.069,12.124-4.762,18.145c-1.39,4.94-2.878,9.857-4.584,14.701
					c-1.567,4.452-3.311,8.864-5.455,13.073c-3.166,6.224-8.244,14.033-15.772,15.079c-5.317,0.738-10.848,0.213-15.749-2.069
					c-4.039-1.879-7.329-4.794-9.752-8.527c-4.992-7.679-5.411-17.773-1.602-26.032c2.259-4.891,4.976-9.57,7.854-14.116
					c3.133-4.948,6.492-9.753,9.948-14.479C189.458,283.383,194.875,276.499,200.29,269.614z"/>
				<path style="fill-rule:evenodd;clip-rule:evenodd;fill:#0F0E0E;" d="M196.318,243.951c2.437,1.359,4.893,2.686,7.362,3.973
					c3.02,1.573,6.109,3.124,9.247,4.454c3.483,1.479,7.302,3.09,10.507,5.104c2.326,1.462,4.445,3.255,5.54,5.84
					c0.952,2.235,0.954,4.645,0.625,7.012c-0.42,3.005-1.338,6.112-2.192,9.02c-1.469,4.997-2.723,10.086-4,15.137
					c-1.53,6.056-3.065,12.111-4.756,18.123c-1.385,4.922-2.869,9.83-4.568,14.653c-1.551,4.405-3.294,8.816-5.413,12.981
					c-3.028,5.945-7.964,13.66-15.192,14.663c-9.784,1.36-19.224-1.746-24.75-10.251c-4.865-7.484-5.258-17.245-1.546-25.291
					c2.234-4.842,4.951-9.523,7.803-14.026c3.123-4.931,6.476-9.728,9.922-14.437c5.317-7.268,10.889-14.331,16.455-21.408
					c-1.943-1.616-3.952-3.185-5.937-4.718c-2.405-1.857-4.791-3.742-7.106-5.711c-3.004-2.553-6.142-5.406-8.591-8.502
					c-1.932-2.441-4.053-5.851-3.159-9.1c0.537-1.935,0.892-3.91,1.415-5.843c0.506-1.861,1.217-3.807,2.685-5.131
					c3.914-3.522,8.476-1.674,12.654,0.242c0.023,0.011,0.043,0.02,0.066,0.03C195.793,231.961,203.138,240.439,196.318,243.951z"/>
				<path style="fill-rule:evenodd;clip-rule:evenodd;fill:#E9BC9D;" d="M192.361,232.839l3.813,4.659c0,0,2.152,4.896-3.146,4.896
					c-5.303,0-6.141-1.194-6.141-1.194s15.418,9.186,25.134,13.308c16.889,7.163,17.562,9.23,13.166,24.193
					c-6.532,22.23-15.152,71.576-32.027,73.92c-21.204,2.945-30.948-16.968-23.878-32.282c7.553-16.362,23.699-36.429,35.275-51.163
					c0,0-2.861-2.477-7.719-6.226c-8.015-6.185-19.506-15.549-18.037-20.867c1.156-4.185,1.484-8.131,3.416-9.871
					C184.817,229.872,187.755,230.728,192.361,232.839z"/>
				<path style="fill-rule:evenodd;clip-rule:evenodd;fill:#0F0E0E;" d="M198.452,267.353c-0.507-0.386-0.607-1.107-0.221-1.612
					c0.384-0.507,1.106-0.606,1.612-0.222c2.221,1.687,4.526,3.602,6.185,5.167c1.657,1.561,2.761,2.941,2.761,3.745
					c0,0.639-0.516,1.157-1.156,1.157c-0.638,0-1.157-0.519-1.157-1.157c0-0.106-0.812-0.918-2.028-2.064
					C202.82,270.832,200.585,268.977,198.452,267.353z"/>
				<g>
					<path style="fill-rule:evenodd;clip-rule:evenodd;fill:#D17F59;" d="M194.85,235.982c-1.215,1.834-3.238,3.074-5.822,1.651
						c-2.027-1.115-3.487-0.845-3.952-0.089c-0.232,0.376-0.215,0.875,0.103,1.382c0.056-0.145,0.143-0.279,0.259-0.396
						c0.235-0.237,0.552-0.35,0.86-0.338c0.282,0.011,0.56,0.124,0.774,0.338c0.023,0.021,0.043,0.041,0.063,0.061
						c1.77,1.747,3.949,2.974,5.871,3.804c0.005,0,0.013,0,0.021,0c1.69,0,2.624-0.497,3.108-1.177
						c0.05-0.07,0.096-0.144,0.137-0.217c0.803-1.448-0.099-3.502-0.099-3.502l-1.287-1.571
						C194.875,235.945,194.864,235.963,194.85,235.982z"/>
				</g>
				<path style="fill-rule:evenodd;clip-rule:evenodd;fill:#0F0E0E;" d="M185.438,240.165c-0.453-0.452-0.453-1.184,0-1.635
					c0.452-0.451,1.183-0.451,1.635,0c4.156,4.155,10.645,5.391,10.666,5.396c0.624,0.121,1.035,0.73,0.911,1.354
					c-0.122,0.627-0.73,1.035-1.354,0.913C197.273,246.189,190.094,244.821,185.438,240.165z"/>
				<path style="fill-rule:evenodd;clip-rule:evenodd;fill:#D17F59;" d="M201.115,329.76c-2.016,3.075-4.241,5.835-6.719,8.081
					c-2.757,2.497-5.83,4.357-9.269,5.31c-0.903,0.249-1.832,0.438-2.789,0.556c-1.066,0.134-2.119,0.216-3.162,0.251
					c-2.406,0.084-4.744-0.078-6.995-0.426c-0.545-0.086-1.083-0.181-1.615-0.286c2.749,4.312,7.035,7.64,12.665,9
					c2.949,0.711,6.267,0.885,9.929,0.376c1.842-0.256,3.585-1.071,5.24-2.353c0.649-0.502,1.287-1.077,1.907-1.718
					c11.982-12.325,18.972-49.021,24.444-68.337c0.145-0.517,0.291-1.021,0.436-1.513c0.083-0.283,0.163-0.562,0.244-0.835
					c0.404-1.39,0.756-2.662,1.053-3.835c0.204-0.803,0.379-1.558,0.523-2.272c1.669-8.246-0.715-10.964-11.975-15.951
					c3.845,3.803,6.064,8.41,6.713,13.74c0.107,0.865,0.169,1.75,0.193,2.653c0.023,0.87,0.007,1.759-0.048,2.661
					c-0.057,0.946-0.153,1.912-0.294,2.896c-0.562,3.959-1.794,8.219-3.682,12.747C213.847,300.273,209.143,317.52,201.115,329.76z"
					/>
			</g>
		</g>
	</g>
</g>
</svg>
